<?xml version="1.0" encoding="UTF-8"?>
<svg version="1.1" viewBox="0 0 1600 1600" width="100" height="100" xmlns="http://www.w3.org/2000/svg">
<path transform="translate(0)" d="m0 0h1600v1600h-1600z" fill="#FD8F43"/>
<path transform="translate(995,546)" d="m0 0h16l9 1 3-1h16l11 2 7-1 14 1 6 2 23 4 24 10 11 7 12 12 6 10 2 13v16l-4 10-3 11-5 9-3 8-4 5-4 8-4 4-6 1-12-3-15-4-21-7-16-5-30-11-24-8-11-2h-15l-12 2-17 6-18 11-20 13-11 8-7 8-2 4 1 8 6 12 7 7 13 9 21 10 18 7 11 5 19 6 19 3 18 3 13 2 21 6 12 5 13 6 26 11 16 8 16 10 14 12 10 9 8 11 8 14 6 17 4 27v21l-3 22-4 16-8 19-10 17-10 14-9 10-7 7-33 22-16 8-24 7-17 4-27 8-7 1-17 1h-76l-19-3-13-4-6-3-15-3-8-1h-9l-17-3-4-2-8-2-13-9-10-7-16-7-20-7-6-4-3-4v-11l3-10 7-8 1-2 1-10h2l1-9 6-7 8-11 4-4h2l-1-7 5-10 8-7 6-3 6 1 9 6 3 3v2l5 2 5 5 10 4 3 2 11 2 8 4 12 2 4-1 1 6 11 6 15 4 3 2 24 3 7 1h8l20-2h7l9 1 13-2 15-1 13-4 8-7 6-4 7-5 1-2h2l1-4 6-4 5-5 5-2-1-10h-2v-2h-3l-1 3-2-3-5-3v-2h2v-6l-4-5-8-6-11-8-12-5-9-3-23-2-15-7h-8l-6-3-3-6-12-4-4-3-10-2-7-2h-13l-27-2-7-4-9-3-10-8-11-7-7-3-8-4-9-2-17-12-8-9-8-7-7-9-7-10-2-5-5-10-2-11-3-13-1-9v-33l4-24 7-21 9-16 10-13 9-10 15-15 13-10 21-13 16-8 19-7 15-3 18-2 27-1z" fill="#FDFCFC"/>
<path transform="translate(359,549)" d="m0 0h203l84 1 78 2 14 2 4 4 1 5v96l-2 1-17 1-140-1 1 293v104l-3 3-3 1h-107l-13-2-1-1v-26l1-53 1-155v-166l-74 1h-45l-33-1-14-2-2-4v-90l2-7 8-4 16-1z" fill="#FDFCFC"/>
<path transform="translate(453,660)" d="m0 0 1 4 3 1-1 127v140l-1 5-2 44-1 27h-1l-1-8-2-128v-109l2-66 1-25 1-10z" fill="#FDFCFC"/>
</svg>
